<svg width="1024" height="1024" viewBox="0 0 1024 1024" fill="none" xmlns="http://www.w3.org/2000/svg">
  <defs>
    <linearGradient id="gPlane" x1="160" y1="120" x2="880" y2="920" gradientUnits="userSpaceOnUse">
      <stop offset="0" stop-color="#39A8FF"/>
      <stop offset="1" stop-color="#7B5CFF"/>
    </linearGradient>
    <filter id="softShadow" x="0" y="0" width="1024" height="1024" filterUnits="userSpaceOnUse" color-interpolation-filters="sRGB">
      <feDropShadow dx="0" dy="26" stdDeviation="34" flood-color="#000000" flood-opacity="0.18"/>
    </filter>
    <filter id="glow" x="-120" y="-120" width="1264" height="1264" filterUnits="userSpaceOnUse">
      <feGaussianBlur stdDeviation="16" result="blur"/>
      <feMerge><feMergeNode in="blur"/><feMergeNode in="SourceGraphic"/></feMerge>
    </filter>
    <linearGradient id="glass" x1="250" y1="120" x2="820" y2="900" gradientUnits="userSpaceOnUse">
      <stop offset="0" stop-color="#FFFFFF" stop-opacity="0.42"/>
      <stop offset="0.45" stop-color="#FFFFFF" stop-opacity="0.11"/>
      <stop offset="1" stop-color="#FFFFFF" stop-opacity="0.22"/>
    </linearGradient>
  </defs>
  <rect x="96" y="96" width="832" height="832" rx="196" fill="url(#gPlane)" filter="url(#softShadow)"/>
  <rect x="106" y="106" width="812" height="812" rx="186" fill="url(#glass)" opacity="0.42"/>
  <path d="M190 250C330 135 650 120 820 300" stroke="white" stroke-opacity="0.25" stroke-width="28" stroke-linecap="round"/>
  
  <g filter="url(#glow)">
    <ellipse cx="512" cy="512" rx="285" ry="158" transform="rotate(-22 512 512)" stroke="#FFFFFF" stroke-width="58" stroke-linecap="round"/>
    <path d="M185 540C245 415 335 402 420 505C505 608 575 606 650 492C725 378 817 414 866 540" stroke="#FFFFFF" stroke-width="58" stroke-linecap="round" stroke-linejoin="round"/>
    <circle cx="512" cy="512" r="34" fill="#FFFFFF" opacity="0.9"/>
  </g>
</svg>